<?xml version="1.0" encoding="utf-8"?>
<!-- Generator: Adobe Illustrator 26.2.1, SVG Export Plug-In . SVG Version: 6.00 Build 0)  -->
<svg version="1.1" id="Layer_1" xmlns="http://www.w3.org/2000/svg" xmlns:xlink="http://www.w3.org/1999/xlink" x="0px" y="0px"
	 viewBox="0 0 705.6 86.3" style="enable-background:new 0 0 705.6 86.3;" xml:space="preserve">
<style type="text/css">
	.st0{fill:#FDFAD3;}
</style>
<path class="st0" d="M587.8,30.1c-7.6-3.2-15.6-3.3-23.6-3.3c-10.6,0-21.1,0-31.7,0c-1.8,0-2.8,0.3-2.5,2.4c0.3,2.2-0.9,5.1,0.5,6.5
	c1.3,1.3,4.1,0.4,6.3,0.4c8.5,0,17,0,25.5-0.1c2.5,0,5-0.3,7.5-0.5c1.2-0.1,1.8,0.2,1.8,1.6c-0.1,3.2-0.1,6.5,0,9.7
	c0,1.3-0.5,1.5-1.6,1.4c-12.5-1.3-25-0.4-37.4-0.7c-1.8,0-2.6,0.3-2.4,2.3c0.3,2.3-1,5.2,0.5,6.7c1.4,1.3,4.3,0.4,6.5,0.4
	c11.9-0.1,23.8,0.4,35.7-0.3c6.4-0.3,12.7-1.4,18.9-4.9c-0.7,4.4-1.3,8.3-2,12.3c-0.9,5.3-1.8,10.6-2.6,15.9c-0.2,1.4-0.6,2-2.1,2
	c-28.8,0-57.6,0-86.4,0c-1.5,0-1.8-0.4-1.4-1.8c2.6-10,3.2-20.3,3-30.6c-0.2-11.6,0.6-23.3-1-34.8c-0.5-3.4-0.9-6.9-1.9-10.3
	c-0.7-2.2,0-2.6,2.1-2.6c24.3,0.1,48.6,0,72.9,0c3.4,0,6.8,0,10.2,0c1,0,1.8,0.1,1.9,1.4c1.2,8.6,2.4,17.2,3.5,25.9
	C587.9,29.3,587.8,29.6,587.8,30.1z"/>
<path class="st0" d="M192.9,6.8c-7.9-4.1-16.5-6-25.4-6.6c-12.8-0.9-25.3,0.3-37,5.8c-14,6.5-22.2,17.4-23.1,33
	c-0.9,16.5,5.8,29,20.4,37c10.2,5.6,21.4,7.4,33.6,7.3c9.3,0.1,19-1.2,28.1-5.1c15.3-6.6,24.3-17.8,24.9-34.8
	C215,26.7,207.7,14.5,192.9,6.8z M174.1,57.4c-4.2,2.1-8.7,2.7-13.3,2.8c-4.6-0.1-9.1-0.7-13.3-2.8c-6.9-3.5-10.1-9.1-9.7-16.7
	c0.3-7.4,4.2-12.5,11-15.2c7.9-3.1,16.1-3.1,24.1,0c6.8,2.7,10.6,7.7,11,15.2C184.1,48.3,181,54,174.1,57.4z"/>
<path class="st0" d="M438,41c0,10.9,0,21.9,0,32.8c0,2-1.6,3.2-2.9,4.4c-8.7,8.1-27.3,6.8-34.6-4.7c-3.3-5.3-5.2-11.1-7.5-16.8
	c-1.3-3.2-2.6-6.3-4.7-9c-4.7-6.2-12-6.7-18.5-5c-1,0.3-1,1-1,1.8c0,11.8,0.1,23.6,3,35.1c0.4,1.7,0.1,2.1-1.6,2.1
	c-10.9-0.1-21.8-0.1-32.7,0c-1.6,0-2.1-0.2-1.6-2c1.7-7.1,2.6-14.4,2.7-21.7c0.2-11.6,0.3-23.2-0.1-34.9c-0.2-6.6-1-13.2-2.7-19.7
	c-0.4-1.6,0.1-1.8,1.5-1.8c11.1,0,22.1,0,33.2,0c1.6,0,1.8,0.6,1.4,1.9c-2.5,8.9-3,18-3.1,27.1c0,2.1,0.7,2.7,2.7,2.6
	c3.6-0.2,7.1,0,10.7-0.4c10.8-1.2,17.1-9.1,15.6-19.9c-0.5-3.4-1.3-6.7-2.9-9.7c-0.6-1.2-0.4-1.6,0.9-1.6c10.1,0,20.1,0,30.2,0
	c1.1,0,1.6,0.4,2.1,1.4c3.2,6.9,3.6,14.1,1.5,21.3c-2.1,6.9-7.8,9.5-14.2,11c-7,1.6-14.2,1.6-21.3,1.7c-1.8,0-3.7,0-5.5,0
	c-0.6,0-1.3-0.1-1.2,0.8c0,0.7,0.7,0.6,1.2,0.6c7.7-0.2,13.8,3.5,19.7,7.7c6.3,4.5,13.2,4.8,20.4,2.6c4.1-1.3,6.8-4.2,8.8-8
	C437.6,40.8,437.8,40.9,438,41z"/>
<path class="st0" d="M97.8,47.8c0,9.9,0,19.3,0,28.7c0,1.4-0.7,1.9-1.8,2.2c-7.1,2-14.4,3.4-21.8,4c-9.6,0.9-19.3,1.2-28.9,0.1
	c-9.1-1-17.8-3.3-25.8-7.9C6.8,67.5,0,56.5,0,41.7C0,26.9,6.7,15.8,19.6,8.4c7.9-4.5,16.6-6.8,25.6-7.8c15.3-1.7,30.4-0.2,45,4.8
	c0.5,0.2,1.1,0.5,1.6,0.6c2.2,0.5,2.6,1.7,2.4,3.9c-0.8,6.8-1.2,13.6-1.7,20.3c-0.1,1.4,0.1,2.8-0.6,4.3c-4.9-3.4-10.3-5.6-16.1-6.9
	c-11.8-2.6-23.6-2.7-35.1,1.6c-2.2,0.8-4.2,2-6,3.6c-5.9,5.3-5.7,13.1,0.6,18c4.4,3.4,9.6,4.8,15,5.6c12.5,1.7,24.9,1.4,36.8-3.2
	C90.7,52,94.1,50.1,97.8,47.8z"/>
<path class="st0" d="M466.3,2.7c5.4,0,10.8,0.1,16.2,0c1.8,0,2,0.4,1.6,2.1c-2.2,8.4-3,17-3,25.6c0,10.9-0.4,21.8,0.4,32.7
	c0.4,5.7,1.2,11.4,2.7,17c0.4,1.5,0.1,1.8-1.4,1.8c-11.1,0-22.1,0-33.2,0c-1.4,0-1.9-0.3-1.5-1.8c2.5-10,3.1-20.2,3-30.5
	c-0.2-11.1,0.6-22.3-0.9-33.4c-0.5-3.8-1-7.6-2-11.4c-0.5-1.6,0-2.1,1.7-2.1C455.3,2.7,460.8,2.7,466.3,2.7z"/>
<path class="st0" d="M319.9,18.2c-1.9,3.1-5.3,5.2-9.2,5.2c-3.3,0-6.3-1.5-8.3-3.9c-1.7,1.2-3.9,2-6.2,2c-5.9,0-10.7-4.8-10.7-10.7
	c0-0.6,0.1-1.2,0.1-1.7c-3.8-1.3-6.6-4.7-7.1-8.9c-12.2-0.6-24.1,0.7-35.3,5.9c-14,6.5-22.2,17.4-23.1,33.1
	c-0.9,16.5,5.9,29,20.4,36.9c10.2,5.6,21.4,7.4,33.6,7.3c9.3,0.1,19-1.2,28.2-5.1c14.5-6.2,23.6-16.8,24.8-32.9
	C328,34.5,325.5,25.5,319.9,18.2z M287.5,57.2c-9.1,4.4-18.5,4.4-27.6,0c-6.9-3.4-9.7-9.5-9.1-17.1c0.6-7.2,4.5-11.9,11.1-14.6
	c3.8-1.5,7.8-2.3,11.7-2c5.1-0.2,9.8,0.7,14.1,3c6.1,3.3,9.1,8.5,9,15.4C296.7,48.8,293.7,54.2,287.5,57.2z"/>
<path class="st0" d="M603.5,47.4c18.2,12.1,38.3,13.9,59,13c2.6-0.1,5.2-0.7,7.6-1.6c1.6-0.6,3.1-1.6,3.1-3.5c0-2-1.6-2.9-3.2-3.4
	c-5.9-2-12.1-2-18.2-2.5c-9.9-0.8-19.9-1.3-29.6-4c-4.5-1.2-8.8-3-12.5-6c-8.2-6.6-8.9-19.2-1.4-27.1c5-5.2,11.6-7.7,18.4-9.4
	c15.3-3.6,30.7-3.6,46.1-1.5c7.2,1,14.3,2.3,21.3,4.4c1.6,0.5,2.2,1.2,2.2,2.9c-0.1,8-0.1,16,0,24.1c0,2.2-0.6,2.2-2.3,1.4
	c-16.5-7.5-33.7-9.5-51.6-7.3c-1.7,0.2-3.3,0.7-4.8,1.5c-1.3,0.7-2.3,1.5-2.3,3.2c0,1.6,1,2.6,2.2,3.3c2.4,1.4,5.1,1.9,7.8,2.1
	c7.5,0.6,15.1,1.1,22.6,1.7c8.1,0.7,16.2,1.4,23.8,4.3c7.2,2.8,12.9,7,13.7,15.3c0.9,9.2-3.2,15.8-11,20.3
	c-7.5,4.3-15.8,6.1-24.2,6.9c-22.5,2.2-44.4-0.8-66.1-6.5c-1.2-0.3-2.2-0.5-2.2-2.3c0.5-9.3,0.9-18.6,1.3-28
	C603.2,48.5,603.3,48.1,603.5,47.4z"/>
</svg>
