<svg width="1095" height="134" viewBox="0 0 1095 134" fill="none" xmlns="http://www.w3.org/2000/svg">
<g clip-path="url(#clip0_45_147)">
<path d="M912.19 46.6951C900.318 41.7275 887.949 41.6189 875.566 41.6033C859.162 41.6033 842.759 41.6654 826.356 41.5412C823.516 41.5257 821.995 41.9604 822.43 45.2514C822.88 48.6511 821.017 53.1063 823.19 55.2641C825.192 57.2512 829.584 55.823 832.92 55.823C846.095 55.854 859.271 55.8696 872.446 55.7454C876.31 55.7143 880.175 55.2641 884.023 54.9226C885.932 54.7519 886.832 55.2176 886.77 57.3909C886.63 62.4205 886.661 67.4502 886.77 72.4643C886.817 74.4669 886.041 74.7773 884.225 74.5911C864.904 72.6351 845.506 73.9391 826.154 73.4889C823.361 73.4268 822.073 74.0012 822.46 77.0438C822.911 80.5677 820.94 85.1627 823.283 87.4291C825.425 89.4938 829.925 88.05 833.386 88.019C851.853 87.8793 870.336 88.5934 888.787 87.6309C898.735 87.1031 908.496 85.5042 918.056 80.0709C916.969 86.8547 916.023 93.0021 915.014 99.1184C913.648 107.377 912.159 115.604 910.917 123.863C910.591 126.036 910.002 126.952 907.612 126.937C862.918 126.875 818.224 126.875 773.53 126.937C771.14 126.937 770.737 126.254 771.28 124.096C775.268 108.495 776.246 92.583 775.997 76.5626C775.718 58.5396 776.929 40.4701 774.415 22.5093C773.67 17.1536 773.08 11.7514 771.482 6.58202C770.442 3.21339 771.482 2.54587 774.787 2.5614C812.513 2.67006 850.223 2.62349 887.949 2.62349C893.241 2.62349 898.549 2.63901 903.841 2.62349C905.408 2.62349 906.587 2.8253 906.836 4.75023C908.636 18.1471 910.498 31.5285 912.329 44.9099C912.391 45.3911 912.267 45.9034 912.221 46.6485L912.19 46.6951Z" fill="#FFF9EB"/>
<path d="M299.325 10.6026C287.019 4.19138 273.672 1.35056 259.938 0.403617C240.121 -0.946939 220.692 0.900374 202.457 9.40733C180.7 19.5598 167.959 36.3564 166.609 60.6974C165.181 86.2648 175.594 105.716 198.189 118.104C214.065 126.797 231.431 129.591 250.332 129.452C264.749 129.669 279.756 127.589 293.971 121.488C317.746 111.273 331.728 93.8559 332.675 67.3881C333.59 41.4947 322.262 22.5714 299.325 10.6026ZM270.15 89.1833C263.663 92.4588 256.711 93.4057 249.572 93.5299C242.433 93.4057 235.465 92.4433 228.979 89.1833C218.286 83.7966 213.367 75.0413 213.863 63.2278C214.36 51.7248 220.381 43.7922 230.856 39.6784C243.163 34.835 255.857 34.7885 268.194 39.6474C278.669 43.7767 284.691 51.6627 285.203 63.1812C285.73 74.9792 280.842 83.7655 270.15 89.1833Z" fill="#FFF9EB"/>
<path d="M679.75 63.7245C679.75 80.7074 679.781 97.6747 679.719 114.658C679.719 117.809 677.205 119.61 675.172 121.503C661.625 134.109 632.806 132.075 621.524 114.176C616.388 106.026 613.486 96.9761 609.947 88.1587C607.992 83.2688 605.897 78.4254 602.669 74.1719C595.391 64.5938 583.984 63.8332 573.913 66.4722C572.361 66.8758 572.407 68.0246 572.407 69.1888C572.361 87.4912 572.485 105.778 577.125 123.677C577.792 126.254 577.327 126.983 574.58 126.968C557.665 126.859 540.749 126.875 523.818 126.968C521.289 126.968 520.559 126.642 521.273 123.785C523.989 112.748 525.324 101.509 525.541 90.1457C525.867 72.1073 526.007 54.0533 525.432 36.0303C525.106 25.7382 523.818 15.4926 521.196 5.49536C520.544 2.99606 521.273 2.63901 523.461 2.65454C540.641 2.70111 557.82 2.71663 574.999 2.65454C577.498 2.65454 577.792 3.58596 577.203 5.68165C573.354 19.4511 572.547 33.5621 572.33 47.7662C572.283 51.0728 573.354 51.9265 576.489 51.7713C582.029 51.4764 587.569 51.7403 593.109 51.1348C609.932 49.272 619.677 36.9618 617.35 20.2583C616.62 14.9958 615.286 9.90408 612.803 5.18489C611.809 3.30653 612.104 2.68559 614.23 2.68559C629.858 2.71663 645.485 2.71663 661.112 2.68559C662.788 2.68559 663.658 3.38415 664.34 4.84337C669.322 15.6012 670.005 26.7627 666.637 37.9553C663.425 48.6355 654.501 52.6717 644.569 54.9692C633.675 57.4995 622.548 57.3909 611.453 57.5461C608.613 57.5927 605.773 57.5461 602.933 57.5616C602.048 57.5616 600.915 57.453 601.008 58.788C601.071 59.8591 602.126 59.7039 602.824 59.6884C614.727 59.4245 624.256 65.044 633.474 71.7037C643.235 78.7669 654.036 79.2171 665.147 75.6777C671.448 73.6752 675.731 69.0957 678.804 63.2743L679.797 63.74L679.75 63.7245Z" fill="#FFF9EB"/>
<path d="M151.757 74.1719C151.757 89.5403 151.695 104.101 151.819 118.663C151.835 120.883 150.811 121.535 149.042 122.016C137.946 125.043 126.695 127.263 115.257 128.303C100.328 129.669 85.3528 130.15 70.3928 128.458C56.3018 126.859 42.8161 123.273 30.4166 116.163C10.4906 104.753 -0.031091 87.6619 -5.36018e-05 64.6559C0.0465025 41.712 10.413 24.5273 30.3545 13.0864C42.6454 6.02317 56.069 2.51483 70.0048 1.00903C93.795 -1.55237 117.135 0.760655 139.87 8.49142C140.724 8.78637 141.531 9.20551 142.415 9.40732C145.798 10.199 146.497 11.9998 146.093 15.5392C144.867 26.0331 144.277 36.5892 143.408 47.1142C143.238 49.272 143.501 51.4919 142.4 53.867C134.764 48.5269 126.384 45.1117 117.446 43.1246C99.0869 39.0419 80.8834 38.9177 63.0369 45.655C59.6383 46.9435 56.5191 48.7442 53.8033 51.1659C44.5852 59.3934 44.9576 71.5174 54.7189 79.155C61.5316 84.4951 69.6789 86.6684 77.997 87.8017C97.3798 90.4562 116.576 89.8973 135.168 82.8341C140.817 80.6918 146.046 77.7423 151.804 74.1874L151.757 74.1719Z" fill="#FFF9EB"/>
<path d="M723.56 4.17586C731.955 4.17586 740.351 4.269 748.747 4.12929C751.493 4.08272 751.897 4.75023 751.23 7.3582C747.877 20.367 746.589 33.6863 746.558 47.0521C746.527 63.9884 745.907 80.9247 747.164 97.8455C747.815 106.74 748.964 115.558 751.292 124.189C751.912 126.487 751.462 126.983 749.15 126.968C731.971 126.89 714.792 126.89 697.597 126.968C695.362 126.968 694.679 126.518 695.254 124.236C699.195 108.681 700.111 92.8313 699.863 76.873C699.599 59.5642 700.716 42.2398 698.451 24.9775C697.675 19.0475 696.961 13.1019 695.316 7.34268C694.586 4.78128 695.285 4.06719 697.969 4.11376C706.489 4.25348 715.024 4.16034 723.544 4.16034L723.56 4.17586Z" fill="#FFF9EB"/>
<path d="M496.381 28.222C493.464 33.0653 488.172 36.3253 482.12 36.3253C476.952 36.3253 472.343 33.9812 469.286 30.2866C466.57 32.196 463.28 33.3292 459.711 33.3292C450.508 33.3292 443.059 25.8779 443.059 16.6724C443.059 15.772 443.152 14.8872 443.292 14.0178C437.395 11.9377 433.019 6.64412 432.289 0.232857C413.418 -0.745132 394.936 1.31951 377.586 9.4539C355.828 19.6219 343.119 36.4961 341.8 60.8061C340.418 86.358 350.894 105.809 373.52 118.15C389.411 126.828 406.776 129.607 425.616 129.452C440.095 129.669 455.102 127.542 469.301 121.457C491.834 111.786 505.879 95.4393 507.726 70.3686C508.967 53.6342 505.196 39.5387 496.397 28.222H496.381ZM446.116 88.7331C432.01 95.5945 417.36 95.5635 403.3 88.671C392.592 83.4085 388.201 73.9546 389.116 62.1877C389.97 51.0572 396.162 43.699 406.295 39.5542C412.192 37.1481 418.4 36.0459 424.483 36.3874C432.398 36.1235 439.692 37.4741 446.411 41.0755C455.924 46.1673 460.502 54.2241 460.456 64.9975C460.425 75.7864 455.722 84.076 446.116 88.7331Z" fill="#FFF9EB"/>
<path d="M936.492 73.6441C964.705 92.3967 995.929 95.2064 1028.02 93.7472C1032.04 93.5609 1036.06 92.7227 1039.86 91.2169C1042.41 90.2078 1044.64 88.7486 1044.69 85.7215C1044.74 82.5547 1042.24 81.2197 1039.75 80.3969C1030.58 77.3387 1020.98 77.2766 1011.46 76.547C996.037 75.3517 980.565 74.5445 965.543 70.3997C958.529 68.4747 951.871 65.7115 946.145 61.101C933.357 50.8089 932.333 31.2335 944.019 19.0785C951.84 10.9442 961.989 7.06325 972.62 4.54842C996.301 -1.05561 1020.22 -1.02456 1044.22 2.21988C1055.41 3.72567 1066.46 5.77479 1077.26 9.11237C1079.78 9.88855 1080.71 10.8976 1080.68 13.5832C1080.54 26.0331 1080.52 38.4986 1080.68 50.9486C1080.72 54.4259 1079.75 54.3172 1077.03 53.0753C1051.49 41.3705 1024.68 38.2658 996.984 41.8051C994.392 42.1311 991.894 42.8918 989.566 44.1182C987.564 45.1582 985.95 46.4933 985.935 49.0547C985.935 51.585 987.487 53.0443 989.411 54.1464C993.12 56.2732 997.279 57.0804 1001.44 57.4374C1013.12 58.4465 1024.82 59.0985 1036.51 60.0765C1049.03 61.1321 1061.59 62.2498 1073.49 66.8137C1084.65 71.0827 1093.45 77.6182 1094.77 90.5649C1096.21 104.847 1089.74 115.061 1077.65 122.078C1066.03 128.831 1053.15 131.578 1040.02 132.867C1005.16 136.297 971.052 131.578 937.392 122.714C935.452 122.202 933.916 121.861 934.056 119.206C934.816 104.753 935.406 90.2854 936.073 75.8174C936.104 75.2586 936.259 74.7152 936.461 73.6441H936.492Z" fill="#FFF9EB"/>
</g>
<defs>
<clipPath id="clip0_45_147">
<rect width="1095" height="134" fill="white"/>
</clipPath>
</defs>
</svg>
